<mxfile host="app.diagrams.net" modified="2021-11-15T07:46:45.691Z" agent="5.0 (Windows NT 10.0; Win64; x64) AppleWebKit/537.36 (KHTML, like Gecko) Chrome/95.0.4638.69 Safari/537.36" etag="B__uj72N8p2NhbXSkcQD" version="15.7.3" type="github">
  <diagram id="IuRK4OOVFnM3gcbih9Tb" name="Page-1">
    <mxGraphModel dx="792" dy="486" grid="1" gridSize="10" guides="1" tooltips="1" connect="1" arrows="1" fold="1" page="1" pageScale="1" pageWidth="850" pageHeight="1100" math="0" shadow="0">
      <root>
        <mxCell id="0" />
        <mxCell id="1" parent="0" />
        <mxCell id="EqGL3WKhdZ_vhaVdY7gF-1" value="Class" style="rounded=0;whiteSpace=wrap;html=1;" vertex="1" parent="1">
          <mxGeometry x="390" y="575" width="90" height="30" as="geometry" />
        </mxCell>
        <mxCell id="EqGL3WKhdZ_vhaVdY7gF-3" value="Pool" style="rounded=0;whiteSpace=wrap;html=1;" vertex="1" parent="1">
          <mxGeometry x="640" y="420" width="100" height="40" as="geometry" />
        </mxCell>
        <mxCell id="EqGL3WKhdZ_vhaVdY7gF-4" value="Staff" style="rounded=0;whiteSpace=wrap;html=1;" vertex="1" parent="1">
          <mxGeometry x="110" y="770" width="100" height="30" as="geometry" />
        </mxCell>
        <mxCell id="EqGL3WKhdZ_vhaVdY7gF-6" value="Student" style="rounded=0;whiteSpace=wrap;html=1;" vertex="1" parent="1">
          <mxGeometry x="330" y="390" width="100" height="40" as="geometry" />
        </mxCell>
        <mxCell id="EqGL3WKhdZ_vhaVdY7gF-7" value="Enrollment" style="shape=ext;margin=3;double=1;whiteSpace=wrap;html=1;align=center;" vertex="1" parent="1">
          <mxGeometry x="90" y="570" width="100" height="40" as="geometry" />
        </mxCell>
        <mxCell id="EqGL3WKhdZ_vhaVdY7gF-8" value="Level" style="shape=ext;margin=3;double=1;whiteSpace=wrap;html=1;align=center;" vertex="1" parent="1">
          <mxGeometry x="630" y="660" width="100" height="40" as="geometry" />
        </mxCell>
        <mxCell id="EqGL3WKhdZ_vhaVdY7gF-10" value="has" style="shape=rhombus;double=1;perimeter=rhombusPerimeter;whiteSpace=wrap;html=1;align=center;" vertex="1" parent="1">
          <mxGeometry x="410" y="700" width="120" height="60" as="geometry" />
        </mxCell>
        <mxCell id="EqGL3WKhdZ_vhaVdY7gF-11" value="gets" style="shape=rhombus;double=1;perimeter=rhombusPerimeter;whiteSpace=wrap;html=1;align=center;" vertex="1" parent="1">
          <mxGeometry x="170" y="450" width="120" height="60" as="geometry" />
        </mxCell>
        <mxCell id="EqGL3WKhdZ_vhaVdY7gF-16" value="" style="shape=link;html=1;rounded=0;endArrow=none;endFill=0;entryX=0;entryY=0.25;entryDx=0;entryDy=0;exitX=1;exitY=0.5;exitDx=0;exitDy=0;" edge="1" parent="1" source="EqGL3WKhdZ_vhaVdY7gF-10" target="EqGL3WKhdZ_vhaVdY7gF-8">
          <mxGeometry relative="1" as="geometry">
            <mxPoint x="629.7999999999998" y="440" as="sourcePoint" />
            <mxPoint x="630" y="508" as="targetPoint" />
          </mxGeometry>
        </mxCell>
        <mxCell id="EqGL3WKhdZ_vhaVdY7gF-17" value="1" style="resizable=0;html=1;align=right;verticalAlign=bottom;" connectable="0" vertex="1" parent="EqGL3WKhdZ_vhaVdY7gF-16">
          <mxGeometry x="1" relative="1" as="geometry">
            <mxPoint x="-10" y="2" as="offset" />
          </mxGeometry>
        </mxCell>
        <mxCell id="EqGL3WKhdZ_vhaVdY7gF-18" value="" style="shape=link;html=1;rounded=0;endArrow=none;endFill=0;entryX=0.4;entryY=0;entryDx=0;entryDy=0;entryPerimeter=0;exitX=0.5;exitY=1;exitDx=0;exitDy=0;" edge="1" parent="1" source="EqGL3WKhdZ_vhaVdY7gF-11" target="EqGL3WKhdZ_vhaVdY7gF-7">
          <mxGeometry relative="1" as="geometry">
            <mxPoint x="130" y="500" as="sourcePoint" />
            <mxPoint x="290" y="500" as="targetPoint" />
          </mxGeometry>
        </mxCell>
        <mxCell id="EqGL3WKhdZ_vhaVdY7gF-19" value="N" style="resizable=0;html=1;align=right;verticalAlign=bottom;" connectable="0" vertex="1" parent="EqGL3WKhdZ_vhaVdY7gF-18">
          <mxGeometry x="1" relative="1" as="geometry" />
        </mxCell>
        <mxCell id="EqGL3WKhdZ_vhaVdY7gF-20" value="" style="endArrow=none;html=1;rounded=0;entryX=0;entryY=0.5;entryDx=0;entryDy=0;exitX=0.5;exitY=0;exitDx=0;exitDy=0;" edge="1" parent="1" source="EqGL3WKhdZ_vhaVdY7gF-11" target="EqGL3WKhdZ_vhaVdY7gF-6">
          <mxGeometry relative="1" as="geometry">
            <mxPoint x="280" y="450" as="sourcePoint" />
            <mxPoint x="440" y="450" as="targetPoint" />
          </mxGeometry>
        </mxCell>
        <mxCell id="EqGL3WKhdZ_vhaVdY7gF-21" value="1" style="resizable=0;html=1;align=right;verticalAlign=bottom;" connectable="0" vertex="1" parent="EqGL3WKhdZ_vhaVdY7gF-20">
          <mxGeometry x="1" relative="1" as="geometry">
            <mxPoint x="-10" as="offset" />
          </mxGeometry>
        </mxCell>
        <mxCell id="EqGL3WKhdZ_vhaVdY7gF-22" value="" style="endArrow=none;html=1;rounded=0;entryX=0.5;entryY=1;entryDx=0;entryDy=0;exitX=0.5;exitY=0;exitDx=0;exitDy=0;" edge="1" parent="1" source="EqGL3WKhdZ_vhaVdY7gF-10" target="EqGL3WKhdZ_vhaVdY7gF-1">
          <mxGeometry relative="1" as="geometry">
            <mxPoint x="600" y="440" as="sourcePoint" />
            <mxPoint x="760" y="440" as="targetPoint" />
          </mxGeometry>
        </mxCell>
        <mxCell id="EqGL3WKhdZ_vhaVdY7gF-23" value="N" style="resizable=0;html=1;align=right;verticalAlign=bottom;" connectable="0" vertex="1" parent="EqGL3WKhdZ_vhaVdY7gF-22">
          <mxGeometry x="1" relative="1" as="geometry">
            <mxPoint x="15" y="15" as="offset" />
          </mxGeometry>
        </mxCell>
        <mxCell id="EqGL3WKhdZ_vhaVdY7gF-27" value="has" style="shape=rhombus;perimeter=rhombusPerimeter;whiteSpace=wrap;html=1;align=center;" vertex="1" parent="1">
          <mxGeometry x="240" y="570" width="120" height="60" as="geometry" />
        </mxCell>
        <mxCell id="EqGL3WKhdZ_vhaVdY7gF-28" value="" style="endArrow=none;html=1;rounded=0;entryX=0;entryY=0.5;entryDx=0;entryDy=0;exitX=1;exitY=0.5;exitDx=0;exitDy=0;" edge="1" parent="1" source="EqGL3WKhdZ_vhaVdY7gF-27" target="EqGL3WKhdZ_vhaVdY7gF-1">
          <mxGeometry relative="1" as="geometry">
            <mxPoint x="330" y="620" as="sourcePoint" />
            <mxPoint x="490" y="620" as="targetPoint" />
          </mxGeometry>
        </mxCell>
        <mxCell id="EqGL3WKhdZ_vhaVdY7gF-29" value="1" style="resizable=0;html=1;align=right;verticalAlign=bottom;" connectable="0" vertex="1" parent="EqGL3WKhdZ_vhaVdY7gF-28">
          <mxGeometry x="1" relative="1" as="geometry" />
        </mxCell>
        <mxCell id="EqGL3WKhdZ_vhaVdY7gF-30" value="" style="endArrow=none;html=1;rounded=0;entryX=1;entryY=0.5;entryDx=0;entryDy=0;" edge="1" parent="1" target="EqGL3WKhdZ_vhaVdY7gF-7">
          <mxGeometry relative="1" as="geometry">
            <mxPoint x="240" y="600" as="sourcePoint" />
            <mxPoint x="490" y="620" as="targetPoint" />
          </mxGeometry>
        </mxCell>
        <mxCell id="EqGL3WKhdZ_vhaVdY7gF-31" value="N" style="resizable=0;html=1;align=right;verticalAlign=bottom;" connectable="0" vertex="1" parent="EqGL3WKhdZ_vhaVdY7gF-30">
          <mxGeometry x="1" relative="1" as="geometry">
            <mxPoint x="10" as="offset" />
          </mxGeometry>
        </mxCell>
        <mxCell id="EqGL3WKhdZ_vhaVdY7gF-32" value="gets" style="shape=rhombus;perimeter=rhombusPerimeter;whiteSpace=wrap;html=1;align=center;" vertex="1" parent="1">
          <mxGeometry x="500" y="490" width="120" height="60" as="geometry" />
        </mxCell>
        <mxCell id="EqGL3WKhdZ_vhaVdY7gF-33" value="" style="endArrow=none;html=1;rounded=0;entryX=0.5;entryY=1;entryDx=0;entryDy=0;exitX=1;exitY=0.5;exitDx=0;exitDy=0;" edge="1" parent="1" source="EqGL3WKhdZ_vhaVdY7gF-32" target="EqGL3WKhdZ_vhaVdY7gF-3">
          <mxGeometry relative="1" as="geometry">
            <mxPoint x="480" y="520" as="sourcePoint" />
            <mxPoint x="640" y="520" as="targetPoint" />
          </mxGeometry>
        </mxCell>
        <mxCell id="EqGL3WKhdZ_vhaVdY7gF-34" value="1" style="resizable=0;html=1;align=right;verticalAlign=bottom;" connectable="0" vertex="1" parent="EqGL3WKhdZ_vhaVdY7gF-33">
          <mxGeometry x="1" relative="1" as="geometry">
            <mxPoint x="10" y="20" as="offset" />
          </mxGeometry>
        </mxCell>
        <mxCell id="EqGL3WKhdZ_vhaVdY7gF-35" value="" style="endArrow=none;html=1;rounded=0;exitX=0;exitY=0.5;exitDx=0;exitDy=0;entryX=0.558;entryY=-0.053;entryDx=0;entryDy=0;entryPerimeter=0;" edge="1" parent="1" source="EqGL3WKhdZ_vhaVdY7gF-32" target="EqGL3WKhdZ_vhaVdY7gF-1">
          <mxGeometry relative="1" as="geometry">
            <mxPoint x="480" y="520" as="sourcePoint" />
            <mxPoint x="440" y="570" as="targetPoint" />
          </mxGeometry>
        </mxCell>
        <mxCell id="EqGL3WKhdZ_vhaVdY7gF-36" value="N" style="resizable=0;html=1;align=right;verticalAlign=bottom;" connectable="0" vertex="1" parent="EqGL3WKhdZ_vhaVdY7gF-35">
          <mxGeometry x="1" relative="1" as="geometry" />
        </mxCell>
        <mxCell id="EqGL3WKhdZ_vhaVdY7gF-37" value="gets" style="shape=rhombus;perimeter=rhombusPerimeter;whiteSpace=wrap;html=1;align=center;" vertex="1" parent="1">
          <mxGeometry x="240" y="670" width="120" height="60" as="geometry" />
        </mxCell>
        <mxCell id="EqGL3WKhdZ_vhaVdY7gF-38" value="" style="endArrow=none;html=1;rounded=0;exitX=1;exitY=0.5;exitDx=0;exitDy=0;entryX=0.25;entryY=1;entryDx=0;entryDy=0;" edge="1" parent="1" source="EqGL3WKhdZ_vhaVdY7gF-37" target="EqGL3WKhdZ_vhaVdY7gF-1">
          <mxGeometry relative="1" as="geometry">
            <mxPoint x="330" y="620" as="sourcePoint" />
            <mxPoint x="490" y="620" as="targetPoint" />
          </mxGeometry>
        </mxCell>
        <mxCell id="EqGL3WKhdZ_vhaVdY7gF-39" value="N" style="resizable=0;html=1;align=right;verticalAlign=bottom;" connectable="0" vertex="1" parent="EqGL3WKhdZ_vhaVdY7gF-38">
          <mxGeometry x="1" relative="1" as="geometry">
            <mxPoint x="-12" y="15" as="offset" />
          </mxGeometry>
        </mxCell>
        <mxCell id="EqGL3WKhdZ_vhaVdY7gF-40" value="" style="endArrow=none;html=1;rounded=0;exitX=0;exitY=0.5;exitDx=0;exitDy=0;" edge="1" parent="1" source="EqGL3WKhdZ_vhaVdY7gF-37">
          <mxGeometry relative="1" as="geometry">
            <mxPoint x="230" y="700" as="sourcePoint" />
            <mxPoint x="210" y="770" as="targetPoint" />
          </mxGeometry>
        </mxCell>
        <mxCell id="EqGL3WKhdZ_vhaVdY7gF-41" value="1" style="resizable=0;html=1;align=right;verticalAlign=bottom;" connectable="0" vertex="1" parent="EqGL3WKhdZ_vhaVdY7gF-40">
          <mxGeometry x="1" relative="1" as="geometry" />
        </mxCell>
        <mxCell id="EqGL3WKhdZ_vhaVdY7gF-43" value="SID" style="ellipse;whiteSpace=wrap;html=1;align=center;fontStyle=4;" vertex="1" parent="1">
          <mxGeometry x="210" y="350" width="90" height="40" as="geometry" />
        </mxCell>
        <mxCell id="EqGL3WKhdZ_vhaVdY7gF-44" value="FirstName" style="ellipse;whiteSpace=wrap;html=1;align=center;" vertex="1" parent="1">
          <mxGeometry x="200" y="310" width="90" height="30" as="geometry" />
        </mxCell>
        <mxCell id="EqGL3WKhdZ_vhaVdY7gF-45" value="MiddleInitial" style="ellipse;whiteSpace=wrap;html=1;align=center;" vertex="1" parent="1">
          <mxGeometry x="235" y="260" width="90" height="40" as="geometry" />
        </mxCell>
        <mxCell id="EqGL3WKhdZ_vhaVdY7gF-46" value="LastName" style="ellipse;whiteSpace=wrap;html=1;align=center;" vertex="1" parent="1">
          <mxGeometry x="370" y="270" width="90" height="40" as="geometry" />
        </mxCell>
        <mxCell id="EqGL3WKhdZ_vhaVdY7gF-47" value="Suffix" style="ellipse;whiteSpace=wrap;html=1;align=center;" vertex="1" parent="1">
          <mxGeometry x="460" y="250" width="65" height="40" as="geometry" />
        </mxCell>
        <mxCell id="EqGL3WKhdZ_vhaVdY7gF-48" value="Birthday" style="ellipse;whiteSpace=wrap;html=1;align=center;" vertex="1" parent="1">
          <mxGeometry x="435" y="360" width="90" height="40" as="geometry" />
        </mxCell>
        <mxCell id="EqGL3WKhdZ_vhaVdY7gF-49" value="LocalStreet" style="ellipse;whiteSpace=wrap;html=1;align=center;" vertex="1" parent="1">
          <mxGeometry x="525" y="270" width="90" height="40" as="geometry" />
        </mxCell>
        <mxCell id="EqGL3WKhdZ_vhaVdY7gF-50" value="LocalCity" style="ellipse;whiteSpace=wrap;html=1;align=center;" vertex="1" parent="1">
          <mxGeometry x="520" y="320" width="90" height="40" as="geometry" />
        </mxCell>
        <mxCell id="EqGL3WKhdZ_vhaVdY7gF-51" value="LocalPostalCode" style="ellipse;whiteSpace=wrap;html=1;align=center;" vertex="1" parent="1">
          <mxGeometry x="220" y="210" width="120" height="30" as="geometry" />
        </mxCell>
        <mxCell id="EqGL3WKhdZ_vhaVdY7gF-52" value="LocalPhone" style="ellipse;whiteSpace=wrap;html=1;align=center;" vertex="1" parent="1">
          <mxGeometry x="340" y="220" width="100" height="30" as="geometry" />
        </mxCell>
        <mxCell id="EqGL3WKhdZ_vhaVdY7gF-54" value="" style="endArrow=none;html=1;rounded=0;" edge="1" parent="1" source="EqGL3WKhdZ_vhaVdY7gF-43">
          <mxGeometry relative="1" as="geometry">
            <mxPoint x="370" y="320" as="sourcePoint" />
            <mxPoint x="360" y="390" as="targetPoint" />
          </mxGeometry>
        </mxCell>
        <mxCell id="EqGL3WKhdZ_vhaVdY7gF-55" value="" style="endArrow=none;html=1;rounded=0;" edge="1" parent="1" target="EqGL3WKhdZ_vhaVdY7gF-44">
          <mxGeometry relative="1" as="geometry">
            <mxPoint x="360" y="390" as="sourcePoint" />
            <mxPoint x="530" y="320" as="targetPoint" />
          </mxGeometry>
        </mxCell>
        <mxCell id="EqGL3WKhdZ_vhaVdY7gF-56" value="" style="endArrow=none;html=1;rounded=0;entryX=0;entryY=0.5;entryDx=0;entryDy=0;" edge="1" parent="1" target="EqGL3WKhdZ_vhaVdY7gF-48">
          <mxGeometry relative="1" as="geometry">
            <mxPoint x="360" y="390" as="sourcePoint" />
            <mxPoint x="530" y="320" as="targetPoint" />
          </mxGeometry>
        </mxCell>
        <mxCell id="EqGL3WKhdZ_vhaVdY7gF-57" value="" style="endArrow=none;html=1;rounded=0;entryX=0;entryY=0.5;entryDx=0;entryDy=0;" edge="1" parent="1" target="EqGL3WKhdZ_vhaVdY7gF-50">
          <mxGeometry relative="1" as="geometry">
            <mxPoint x="360" y="390" as="sourcePoint" />
            <mxPoint x="530" y="320" as="targetPoint" />
          </mxGeometry>
        </mxCell>
        <mxCell id="EqGL3WKhdZ_vhaVdY7gF-58" value="" style="endArrow=none;html=1;rounded=0;entryX=0;entryY=1;entryDx=0;entryDy=0;" edge="1" parent="1" target="EqGL3WKhdZ_vhaVdY7gF-49">
          <mxGeometry relative="1" as="geometry">
            <mxPoint x="360" y="390" as="sourcePoint" />
            <mxPoint x="530" y="320" as="targetPoint" />
          </mxGeometry>
        </mxCell>
        <mxCell id="EqGL3WKhdZ_vhaVdY7gF-59" value="" style="endArrow=none;html=1;rounded=0;entryX=0.257;entryY=0.959;entryDx=0;entryDy=0;entryPerimeter=0;" edge="1" parent="1" target="EqGL3WKhdZ_vhaVdY7gF-47">
          <mxGeometry relative="1" as="geometry">
            <mxPoint x="360" y="390" as="sourcePoint" />
            <mxPoint x="530" y="320" as="targetPoint" />
          </mxGeometry>
        </mxCell>
        <mxCell id="EqGL3WKhdZ_vhaVdY7gF-60" value="" style="endArrow=none;html=1;rounded=0;" edge="1" parent="1" target="EqGL3WKhdZ_vhaVdY7gF-45">
          <mxGeometry relative="1" as="geometry">
            <mxPoint x="360" y="390" as="sourcePoint" />
            <mxPoint x="530" y="320" as="targetPoint" />
          </mxGeometry>
        </mxCell>
        <mxCell id="EqGL3WKhdZ_vhaVdY7gF-61" value="" style="endArrow=none;html=1;rounded=0;entryX=0;entryY=1;entryDx=0;entryDy=0;" edge="1" parent="1" target="EqGL3WKhdZ_vhaVdY7gF-46">
          <mxGeometry relative="1" as="geometry">
            <mxPoint x="360" y="390" as="sourcePoint" />
            <mxPoint x="530" y="320" as="targetPoint" />
          </mxGeometry>
        </mxCell>
        <mxCell id="EqGL3WKhdZ_vhaVdY7gF-62" value="" style="endArrow=none;html=1;rounded=0;entryX=1;entryY=1;entryDx=0;entryDy=0;" edge="1" parent="1" target="EqGL3WKhdZ_vhaVdY7gF-51">
          <mxGeometry relative="1" as="geometry">
            <mxPoint x="360" y="390" as="sourcePoint" />
            <mxPoint x="530" y="320" as="targetPoint" />
          </mxGeometry>
        </mxCell>
        <mxCell id="EqGL3WKhdZ_vhaVdY7gF-63" value="" style="endArrow=none;html=1;rounded=0;entryX=0.26;entryY=0.983;entryDx=0;entryDy=0;entryPerimeter=0;" edge="1" parent="1" target="EqGL3WKhdZ_vhaVdY7gF-52">
          <mxGeometry relative="1" as="geometry">
            <mxPoint x="360" y="380" as="sourcePoint" />
            <mxPoint x="530" y="320" as="targetPoint" />
          </mxGeometry>
        </mxCell>
      </root>
    </mxGraphModel>
  </diagram>
</mxfile>
